<svg id="visual" viewBox="0 0 900 600" width="900" height="600" xmlns="http://www.w3.org/2000/svg" xmlns:xlink="http://www.w3.org/1999/xlink" version="1.1"><rect x="0" y="0" width="900" height="600" fill="#5ea5c9"></rect><path d="M0 418L16.7 402.8C33.3 387.7 66.7 357.3 100 344C133.3 330.7 166.7 334.3 200 337.5C233.3 340.7 266.7 343.3 300 329.2C333.3 315 366.7 284 400 296.3C433.3 308.7 466.7 364.3 500 389.8C533.3 415.3 566.7 410.7 600 379.2C633.3 347.7 666.7 289.3 700 259.8C733.3 230.3 766.7 229.7 800 246.7C833.3 263.7 866.7 298.3 883.3 315.7L900 333L900 601L883.3 601C866.7 601 833.3 601 800 601C766.7 601 733.3 601 700 601C666.7 601 633.3 601 600 601C566.7 601 533.3 601 500 601C466.7 601 433.3 601 400 601C366.7 601 333.3 601 300 601C266.7 601 233.3 601 200 601C166.7 601 133.3 601 100 601C66.7 601 33.3 601 16.7 601L0 601Z" fill="#1e4871" stroke-linecap="round" stroke-linejoin="miter"></path></svg>